<svg width="350" height="75" viewBox="0 0 350 75" fill="none" xmlns="http://www.w3.org/2000/svg">
<path d="M91.241 12.3801C80.8554 12.3801 73.0254 19.0695 73.0254 27.9552C73.0254 36.841 80.9642 43.5802 91.1322 43.5802C97.2222 43.5802 102.007 41.1841 105.107 37.7895V37.0906L99.071 32.3982H98.3641C96.5153 34.2451 93.9597 35.2935 91.241 35.2935C86.8367 35.4932 83.0848 32.3482 82.8673 28.2547C82.6497 24.2112 86.0754 20.7667 90.5341 20.5671H91.241C93.9597 20.6169 96.5153 21.6653 98.3641 23.4624H99.071L105.107 18.72V18.071C101.627 14.4768 96.5697 12.3303 91.241 12.3801Z" fill="#405965"/>
<path d="M110.163 42.9811H135.285V35.4431H120.168V31.2H131.533V24.1612H120.168V19.918H135.285V12.38H110.163V42.9811Z" fill="#405965"/>
<path d="M247.025 32.3981L243.056 24.261L237.238 12.38H228.049L214.074 42.9811H224.568L226.417 38.3885H238.869C239.685 39.8361 240.772 41.0842 242.077 42.1823C243.545 43.1808 245.394 43.6799 247.243 43.5801C248.928 43.6301 250.56 43.2806 252.028 42.5818L247.569 33.4464C247.406 33.1469 247.243 32.7974 247.025 32.3981ZM229.027 32.2981L232.725 23.2127L236.205 32.2981H229.027Z" fill="#405965"/>
<path d="M171.933 32.3981L167.964 24.261L162.2 12.38H153.011L139.036 42.9811H149.531L151.38 38.3885H163.831C164.647 39.8361 165.735 41.0842 167.039 42.1823C168.508 43.1808 170.356 43.6799 172.205 43.5801C173.891 43.6301 175.522 43.2806 176.99 42.5818L172.477 33.4464C172.259 33.1469 172.096 32.7974 171.933 32.3981ZM153.881 32.2981L157.578 23.1628L161.058 32.2483L153.881 32.2981Z" fill="#405965"/>
<path d="M203.634 31.0003C207.277 29.5026 209.67 26.6072 209.67 22.6137C209.67 16.3737 205.048 12.38 196.402 12.38H180.851V42.9811H190.856V32.2483H191.672C193.901 32.2483 195.967 36.4416 197.164 38.4383C199.393 42.0825 201.568 43.5801 206.081 43.5801C208.093 43.5801 210.159 42.9811 211.192 42.2323L211.247 42.1325L203.852 31.2C203.743 31.15 203.689 31.0502 203.634 31.0003ZM196.022 26.158H190.856V19.918H196.022C197.87 19.8182 199.393 21.1161 199.502 22.8134V23.1129C199.502 25.1096 197.87 26.1081 196.022 26.158Z" fill="#405965"/>
<path d="M83.7373 53.8638C83.7373 55.1118 83.1936 56.3599 82.2148 57.2085C81.1816 58.107 79.8224 58.6063 78.4085 58.6063C75.4723 58.6063 73.0798 56.4097 73.0798 53.714C73.0798 51.0183 75.4723 48.8219 78.4085 48.8219C80.0398 48.8219 81.6167 49.4709 82.6498 50.619V50.7688L81.1274 51.9169H80.9098C80.3117 51.2181 79.3873 50.8187 78.4085 50.8187C76.7773 50.8187 75.418 52.0667 75.4723 53.5643V53.6642C75.418 55.2116 76.7773 56.4597 78.4629 56.4597C79.1699 56.4597 79.8766 56.26 80.4749 55.8107C80.8554 55.4613 81.1274 55.0619 81.2361 54.5628H78.5174V52.9154H83.5198L83.7373 53.0651V53.8638Z" fill="#405965"/>
<path d="M85.3685 53.764C85.3685 50.9685 87.8154 48.8718 90.9691 48.8718C94.1228 48.8718 96.5697 50.9685 96.5697 53.764C96.5697 56.5594 94.1228 58.6561 90.9691 58.6561C87.8154 58.6561 85.3685 56.5594 85.3685 53.764ZM94.0684 53.764C94.0684 52.1666 92.7091 50.9185 90.9691 50.9185C89.2291 50.9185 87.8697 52.1666 87.8697 53.764C87.8697 55.3614 89.2291 56.6094 90.9691 56.6094C92.6547 56.6594 94.0141 55.4613 94.0684 53.9137V53.764Z" fill="#405965"/>
<path d="M108.097 49.2212L103.475 58.4565H102.062L97.4398 49.2212L97.5485 49.0714H100.05L102.769 55.0618L105.596 49.0714H107.988L108.097 49.2212Z" fill="#405965"/>
<path d="M112.447 50.9185V52.8654H116.308V54.6125H112.447V56.6094H117.45V58.4565H109.946V49.0714H117.45V50.9185H112.447Z" fill="#405965"/>
<path d="M128.433 58.2568L128.325 58.4065H125.878L123.811 54.8622H122.398V58.4065H119.951V49.0714H124.355C126.965 49.0714 128.325 50.2197 128.325 52.0666C128.325 53.2647 127.509 54.313 126.313 54.6625L128.433 58.2568ZM122.398 53.3646H124.41C125.116 53.4145 125.769 52.9652 125.823 52.3163V52.1665C125.823 51.4676 125.28 50.9185 124.518 50.9185H122.398V53.3646Z" fill="#405965"/>
<path d="M139.961 49.0714V58.5063H138.438L133.218 52.8654V58.4565H130.771V49.0714H132.294L137.46 54.6625V49.0714H139.961Z" fill="#405965"/>
<path d="M142.299 53.764C142.299 50.9685 144.746 48.8718 147.9 48.8718C151.054 48.8718 153.501 50.9685 153.501 53.764C153.501 56.5594 151.054 58.6561 147.9 58.6561C144.746 58.6561 142.299 56.5096 142.299 53.764ZM150.999 53.764C150.999 52.2164 149.64 50.9185 147.9 50.9185C146.214 50.9185 144.801 52.1666 144.801 53.764C144.801 55.3614 146.16 56.6094 147.9 56.6094C149.586 56.6594 150.945 55.4613 150.999 53.9137V53.764Z" fill="#405965"/>
<path d="M169.758 53.714C169.758 56.5594 167.692 58.4065 164.375 58.4065H159.916V49.0714H164.375C167.692 49.0714 169.758 50.9185 169.758 53.714ZM167.257 53.714C167.257 51.9169 166.06 50.8685 164.266 50.8685H162.309V56.5594H164.266C166.06 56.5594 167.257 55.5111 167.257 53.714Z" fill="#405965"/>
<path d="M171.499 53.764C171.499 50.9685 173.946 48.8718 177.099 48.8718C180.253 48.8718 182.7 50.9685 182.7 53.764C182.7 56.5594 180.253 58.6561 177.099 58.6561C173.946 58.6561 171.499 56.5594 171.499 53.764ZM180.199 53.764C180.199 52.2164 178.839 50.9185 177.154 50.9185C175.468 50.9185 174.054 52.1666 174.054 53.714C174.054 55.2616 175.414 56.5594 177.099 56.5594H177.154C178.839 56.6094 180.199 55.4113 180.253 53.8638C180.199 53.8139 180.199 53.764 180.199 53.764Z" fill="#405965"/>
<path d="M191.563 50.9185V52.8654H195.424V54.6125H191.563V56.6094H196.62V58.4565H189.116V49.0714H196.566V50.9185H191.563Z" fill="#405965"/>
<path d="M198.305 56.909V56.7592L199.501 55.4613H199.664C200.371 56.2101 201.404 56.6594 202.492 56.7092C203.525 56.7092 204.123 56.3099 204.123 55.7608C204.123 54.9621 203.144 54.8623 201.893 54.5128C200.48 54.1135 198.794 53.3647 198.794 51.6174C198.794 49.97 200.371 48.8219 202.655 48.8219C204.068 48.7719 205.482 49.2712 206.515 50.2197V50.3695L205.319 51.6174H205.156C204.503 51.0183 203.634 50.619 202.709 50.5691C201.893 50.5691 201.35 50.8686 201.35 51.4178C201.35 52.0168 202.111 52.2664 202.981 52.5659C204.721 53.0652 206.733 53.5643 206.733 55.6609C206.733 57.508 204.939 58.5064 202.709 58.5064C201.024 58.6561 199.447 58.0571 198.305 56.909Z" fill="#405965"/>
<path d="M213.585 58.4565H211.138V50.9185H207.93V49.0714H216.847V50.9185H213.585V58.4565Z" fill="#405965"/>
<path d="M227.396 58.2568L227.287 58.4565H224.786L224.024 56.8091H219.674L218.913 58.4565H216.521L216.412 58.2568L221.142 49.0216H222.665L227.396 58.2568ZM223.372 55.2116L221.958 52.0168L220.49 55.2116H223.372Z" fill="#405965"/>
<path d="M239.086 53.714C239.086 56.5594 237.02 58.4065 233.703 58.4065H229.244V49.0714H233.703C237.02 49.0714 239.086 50.9185 239.086 53.714ZM236.585 53.714C236.585 51.9169 235.388 50.8685 233.648 50.8685H231.691V56.5594H233.648C235.443 56.5594 236.639 55.5111 236.585 53.714Z" fill="#405965"/>
<path d="M240.88 53.764C240.88 50.9685 243.327 48.8718 246.481 48.8718C249.635 48.8718 252.081 50.9685 252.081 53.764C252.081 56.5594 249.635 58.6561 246.481 58.6561C243.327 58.6561 240.88 56.5594 240.88 53.764ZM249.58 53.764C249.58 52.1666 248.221 50.9185 246.481 50.9185C244.741 50.9185 243.381 52.1666 243.381 53.764C243.381 55.3614 244.741 56.6094 246.481 56.6094C248.166 56.6594 249.526 55.4613 249.58 53.9137V53.764Z" fill="#405965"/>
<path d="M228.809 10.5332L241.968 5.99047V5.34147L238.488 0.0998535H237.781L226.145 6.63947V7.28835L228.102 10.5332H228.809Z" fill="#405965"/>
<path d="M54.0486 30.3015C54.4292 27.4061 56.6586 25.4093 59.2686 23.8618L59.758 23.6122L51.0036 13.4784L50.8404 13.4284C49.8074 13.2288 48.7742 13.0791 47.7411 12.9293C44.5874 12.5299 42.3037 12.2803 40.3462 12.0806L38.7149 11.9808H38.6605L38.1711 11.9308H37.9536C36.7574 11.881 35.5611 11.831 34.3649 11.7811H33.6037C29.1993 11.6813 25.3387 11.831 22.5656 11.9808C21.5869 12.0308 15.4424 12.5798 14.2463 12.7296H14.0831C12.6693 12.9293 9.78747 13.3286 8.75431 13.4784L0 23.6122L0.489374 23.8618C3.09937 25.3594 5.32869 27.4061 5.70936 30.3015C6.09003 33.1968 4.34994 36.4915 3.15378 39.0874C1.57683 42.5819 0.108706 46.0264 0.108706 49.8702C0.108706 50.6689 0.271831 51.5175 0.489374 52.3163C1.35941 54.8622 3.48003 56.9089 5.76378 58.5563C8.48248 60.4034 11.3643 62.0507 14.4094 63.4484C17.5087 64.946 20.6624 66.3938 23.6531 68.0411C25.665 69.1393 28.275 70.7867 29.3624 72.7336L29.7974 73.5323L30.2325 72.7336C31.3199 70.7867 33.9843 69.1893 35.9418 68.0411C38.9323 66.3938 42.0861 64.946 45.1855 63.4484C48.2304 62.0507 51.1124 60.4034 53.8311 58.5563C56.1148 56.9089 58.2355 54.8622 59.1055 52.3163C59.3773 51.5175 59.486 50.7188 59.486 49.8702C59.486 46.0264 58.0179 42.5819 56.4411 39.0874C55.3536 36.4915 53.668 33.1968 54.0486 30.3015Z" fill="white"/>
<path fill-rule="evenodd" clip-rule="evenodd" d="M40.4548 1.94692L42.2492 2.19648V1.19812L40.4548 1.94692Z" fill="#EAD7B1"/>
<path fill-rule="evenodd" clip-rule="evenodd" d="M24.7949 0.649048V1.59745L25.8281 1.49765L24.7949 0.649048Z" fill="#EAD7B1"/>
<path fill-rule="evenodd" clip-rule="evenodd" d="M33.8755 1.49756L34.8542 1.54752V0.598999L33.8755 1.49756Z" fill="#EAD7B1"/>
<mask id="mask0_24_1349" style="mask-type:luminance" maskUnits="userSpaceOnUse" x="12" y="0" width="35" height="5">
<path d="M27.8943 0.14978C27.7856 0.14978 27.6768 0.249581 27.6768 0.349501V1.64738C26.5893 1.64738 25.5019 1.69734 24.4143 1.74718V0.449301C24.4143 0.399341 24.4143 0.349501 24.36 0.299541C24.3056 0.249581 24.2512 0.249581 24.1969 0.249581C23.0006 0.299541 21.75 0.399341 20.4993 0.499261C20.3906 0.499261 20.3362 0.599061 20.3362 0.698862V1.99686C19.2487 2.09667 18.27 2.19647 17.1825 2.34623V1.0983C17.1825 1.04834 17.1825 0.998383 17.1281 0.948542C17.0737 0.898582 17.0194 0.898582 16.965 0.898582C16.1494 0.998383 15.3337 1.1981 14.5181 1.34786C14.0287 1.44766 13.5938 1.54758 13.1044 1.59742C12.9956 1.59742 12.9413 1.69734 12.9413 1.79714V3.24479L13.5394 4.29311C13.5938 4.34307 13.6481 4.39303 13.7025 4.39303H13.8112C18.9225 3.64423 24.088 3.24479 29.2537 3.19495C34.4737 3.19495 39.5849 3.74403 45.6749 4.64259H45.7293C45.7836 4.64259 45.838 4.64259 45.838 4.59263C45.8924 4.54279 45.8924 4.49283 45.8924 4.44287V4.29311L46.3818 3.44451L46.4905 3.24479V1.79714C46.4905 1.69734 46.4361 1.64738 46.3274 1.59742L45.7836 1.49762C44.7506 1.2979 43.663 1.0983 42.63 0.948542C42.5755 0.948542 42.5211 0.948542 42.4668 0.998383C42.4124 0.998383 42.4124 1.04834 42.358 1.0983V2.29639C41.4881 2.19647 40.6725 2.09667 39.8568 2.04671L39.2043 1.99686V0.748822C39.2043 0.649021 39.1499 0.599061 39.0412 0.549101C37.8449 0.449301 36.5943 0.349501 35.3436 0.299541C35.2893 0.299541 35.2349 0.299541 35.1805 0.349501C35.1262 0.399341 35.1262 0.449301 35.1262 0.499261V1.74718C34.0386 1.69734 32.9512 1.69734 31.8637 1.64738V0.349501C31.8637 0.249581 31.7549 0.14978 31.6462 0.14978H27.8943Z" fill="white"/>
</mask>
<g mask="url(#mask0_24_1349)">
<path d="M46.5994 0.14978H12.9413V4.64259H46.5994V0.14978Z" fill="url(#paint0_linear_24_1349)"/>
</g>
<mask id="mask1_24_1349" style="mask-type:luminance" maskUnits="userSpaceOnUse" x="13" y="3" width="33" height="3">
<path d="M13.5938 4.59256L15.0619 5.89056C19.9012 5.1916 24.7405 4.79228 29.6342 4.74232C34.6368 4.84224 39.6937 5.1916 44.6417 5.89056L45.6204 5.04184L45.8924 4.59256C40.7811 3.694 35.5611 3.29468 30.3412 3.29468C24.6862 3.34464 19.14 3.79392 13.5938 4.59256Z" fill="white"/>
</mask>
<g mask="url(#mask1_24_1349)">
<path d="M45.8924 3.3446H13.5938V5.94049H45.8924V3.3446Z" fill="url(#paint1_linear_24_1349)"/>
</g>
<mask id="mask2_24_1349" style="mask-type:luminance" maskUnits="userSpaceOnUse" x="12" y="4" width="35" height="10">
<path d="M16.258 5.8407L12.8868 13.179C12.8868 13.179 21.2606 12.2804 30.2867 12.0807C35.8874 11.9809 41.3792 12.3802 46.8712 13.2289C46.8167 13.179 43.3367 5.79074 43.3367 5.79074C43.3367 5.79074 37.3555 5.0919 30.2325 4.94214H28.7099C24.5774 4.9921 20.445 5.29162 16.258 5.8407Z" fill="white"/>
</mask>
<g mask="url(#mask2_24_1349)">
<path d="M46.8712 4.94214H12.9413V13.2788H46.8712V4.94214Z" fill="url(#paint2_linear_24_1349)"/>
</g>
<path fill-rule="evenodd" clip-rule="evenodd" d="M32.1355 11.9808L27.0786 12.0308C27.133 11.1322 27.1873 10.2835 27.4049 9.43492C27.6224 8.78592 28.0574 8.18688 28.6554 7.78756C29.1992 7.43808 29.8517 7.38824 30.5042 7.538C31.1023 7.7376 31.6461 8.13704 31.9179 8.63616C32.2986 9.2352 32.5161 9.8842 32.5704 10.5332C32.6248 11.0323 32.6248 11.5316 32.5704 12.0308L32.1355 11.9808Z" fill="#EAD7B1"/>
<path fill-rule="evenodd" clip-rule="evenodd" d="M37.3555 6.24004C36.5398 6.29 35.8329 6.73928 35.8873 7.33832C35.9418 7.93736 36.3223 10.7328 36.3223 10.7328L39.5848 10.9326L38.9867 7.08876C38.9867 7.08876 38.1711 6.1902 37.3555 6.24004Z" fill="#EAD7B1"/>
<mask id="mask3_24_1349" style="mask-type:luminance" maskUnits="userSpaceOnUse" x="2" y="14" width="55" height="55">
<path d="M10.1682 15.8746L3.96942 22.9633C6.30745 24.7604 8.04753 27.0068 8.42807 29.952C8.86316 33.4465 7.17749 36.9408 5.76379 40.0858C4.34996 43.2308 2.88184 46.4756 2.88184 49.9201C2.88184 50.4692 2.99067 51.0183 3.1538 51.5675C4.5675 55.7608 11.6906 59.2053 15.66 61.1522C18.8138 62.6996 22.0762 64.1474 25.1212 65.8446C26.8069 66.6933 28.3837 67.7416 29.7974 68.8897C31.1568 67.7416 32.6793 66.6933 34.3106 65.8446C37.3555 64.1474 40.618 62.6996 43.7718 61.1522C48.013 59.1054 56.6042 55.0618 56.6042 49.9201C56.6042 46.4756 55.1905 43.2807 53.7767 40.1357C52.363 36.9908 50.6773 33.4465 51.058 29.952C51.4387 27.0068 53.1786 24.8602 55.5168 23.0631L49.318 15.8746C43.0649 14.8762 36.7575 14.377 30.3956 14.377C23.6531 14.377 16.8563 14.8762 10.1682 15.8746Z" fill="white"/>
</mask>
<g mask="url(#mask3_24_1349)">
<path d="M56.5498 14.327H2.88184V68.8898H56.5498V14.327Z" fill="url(#paint3_radial_24_1349)"/>
</g>
<path fill-rule="evenodd" clip-rule="evenodd" d="M11.31 25.4093L10.7663 26.9069H9.13501L10.4944 27.8554L9.95063 29.353L11.31 28.4045L12.615 29.353L12.1257 27.8554L13.485 26.9069H11.7994L11.31 25.4093Z" fill="white"/>
<path fill-rule="evenodd" clip-rule="evenodd" d="M9.89622 35.593L9.40685 37.0906H7.72131L9.0806 38.0391L8.59122 39.5367L9.89622 38.5882L11.2556 39.5367L10.7118 38.0391L12.0713 37.0906H10.3856L9.89622 35.593Z" fill="white"/>
<path fill-rule="evenodd" clip-rule="evenodd" d="M8.10179 44.7284L7.61241 46.226H5.92688L7.28616 47.1745L6.7425 48.6721L8.10179 47.7236L9.4612 48.6721L8.91741 47.1745L10.2768 46.226H8.59116L8.10179 44.7284Z" fill="white"/>
<path fill-rule="evenodd" clip-rule="evenodd" d="M29.6343 60.653L29.1449 62.1506L27.4594 62.1006L28.8186 63.0491L28.3293 64.5467L29.6343 63.5982L30.9937 64.5467L30.4499 63.0491L31.8093 62.1006L30.178 62.1506L29.6343 60.653Z" fill="white"/>
<path fill-rule="evenodd" clip-rule="evenodd" d="M39.6393 56.9089L39.0955 58.4065H37.4642L38.8236 59.3551L38.2799 60.8527L39.6393 59.9041L40.9443 60.8527L40.4549 59.3551L41.7599 58.4065H40.1286L39.6393 56.9089Z" fill="white"/>
<path fill-rule="evenodd" clip-rule="evenodd" d="M19.5749 56.9089L20.0643 58.4065H21.75L20.3906 59.3551L20.9344 60.8527L19.5749 59.9041L18.2155 60.8527L18.7593 59.3551L17.3999 58.4065H19.0311L19.5749 56.9089Z" fill="white"/>
<path fill-rule="evenodd" clip-rule="evenodd" d="M11.6362 52.0667L12.1256 53.5643H13.8111L12.4518 54.4628L12.9955 55.9604L11.6362 55.0619L10.2768 55.9604L10.8206 54.4628L9.46118 53.5643H11.1468L11.6362 52.0667Z" fill="white"/>
<mask id="mask4_24_1349" style="mask-type:luminance" maskUnits="userSpaceOnUse" x="13" y="20" width="34" height="20">
<path d="M13.5394 39.2872H46.0012C46.2187 29.8023 40.7812 20.0179 29.7431 20.0179C18.7049 20.0179 13.2675 29.8023 13.5394 39.2872Z" fill="white"/>
</mask>
<g mask="url(#mask4_24_1349)">
<path d="M46.2187 20.0179H13.2676V39.2871H46.2187V20.0179Z" fill="url(#paint4_radial_24_1349)"/>
</g>
<path fill-rule="evenodd" clip-rule="evenodd" d="M13.5393 38.3386H22.6743V38.6881H13.4849V38.6381L13.5393 38.3386Z" fill="#CAA52E"/>
<path fill-rule="evenodd" clip-rule="evenodd" d="M13.5938 36.6913L22.6743 38.3386L22.5656 38.6881L13.5938 37.0408V36.6913Z" fill="#CAA52E"/>
<path fill-rule="evenodd" clip-rule="evenodd" d="M13.8111 34.994L22.7287 38.3387L22.5656 38.6882L13.7568 35.3935C13.7568 35.2437 13.7568 35.0939 13.8111 34.994Z" fill="#CAA52E"/>
<path fill-rule="evenodd" clip-rule="evenodd" d="M14.1374 33.147L22.7287 38.3386L22.5112 38.6381L14.0831 33.5463C14.0831 33.3965 14.1374 33.2967 14.1374 33.147Z" fill="#CAA52E"/>
<path fill-rule="evenodd" clip-rule="evenodd" d="M14.7357 31.1501L22.7831 38.3886L22.5112 38.6382L14.6268 31.5495L14.7357 31.1501Z" fill="#CAA52E"/>
<path fill-rule="evenodd" clip-rule="evenodd" d="M15.7144 28.8538L22.8374 38.4384L22.5112 38.6381L15.4968 29.2532L15.7144 28.8538Z" fill="#CAA52E"/>
<path fill-rule="evenodd" clip-rule="evenodd" d="M17.2368 26.3079L22.8374 38.4385L22.4568 38.5882L16.965 26.6573C17.0737 26.5575 17.1281 26.4576 17.2368 26.3079Z" fill="#CAA52E"/>
<path fill-rule="evenodd" clip-rule="evenodd" d="M19.5206 23.762L22.8375 38.4884L22.4568 38.5384L19.1943 24.0116C19.3032 23.9617 19.4119 23.8619 19.5206 23.762Z" fill="#CAA52E"/>
<path fill-rule="evenodd" clip-rule="evenodd" d="M22.783 21.5656L22.8374 38.5384H22.4568L22.4025 21.7653L22.783 21.5656Z" fill="#CAA52E"/>
<path fill-rule="evenodd" clip-rule="evenodd" d="M26.7524 20.2676L22.8375 38.5882L22.4568 38.5383L26.3718 20.3674L26.7524 20.2676Z" fill="#CAA52E"/>
<path fill-rule="evenodd" clip-rule="evenodd" d="M31.1568 20.0679L22.8375 38.6382L22.4568 38.4884L30.7761 20.0679H31.1568Z" fill="#CAA52E"/>
<path fill-rule="evenodd" clip-rule="evenodd" d="M35.6156 21.0662L22.783 38.6382L22.4568 38.4384L35.2349 20.9664L35.6156 21.0662Z" fill="#CAA52E"/>
<path fill-rule="evenodd" clip-rule="evenodd" d="M39.4762 23.3626L22.7288 38.6881L22.4568 38.4384L39.2043 23.113C39.313 23.2128 39.3675 23.2628 39.4762 23.3626Z" fill="#CAA52E"/>
<path fill-rule="evenodd" clip-rule="evenodd" d="M42.4668 26.6074L22.7288 38.6882L22.5112 38.3886L42.3037 26.2581C42.358 26.4078 42.4124 26.5076 42.4668 26.6074Z" fill="#CAA52E"/>
<path fill-rule="evenodd" clip-rule="evenodd" d="M44.4243 30.4014L22.6744 38.738L22.5112 38.3886L44.3155 30.0519C44.3699 30.1518 44.4243 30.3016 44.4243 30.4014Z" fill="#CAA52E"/>
<path fill-rule="evenodd" clip-rule="evenodd" d="M45.6204 34.4449L22.6743 38.738L22.5656 38.3887L45.5661 34.0955L45.6204 34.4449Z" fill="#CAA52E"/>
<path fill-rule="evenodd" clip-rule="evenodd" d="M45.9466 38.5383L22.5656 38.6881V38.3386L45.9466 38.1888V38.5383Z" fill="#CAA52E"/>
<path fill-rule="evenodd" clip-rule="evenodd" d="M22.6199 33.147C25.8824 33.147 28.6012 35.5431 28.6012 38.5383H16.6387C16.6931 35.5431 19.3574 33.147 22.6199 33.147Z" fill="#CAA52E"/>
<path fill-rule="evenodd" clip-rule="evenodd" d="M22.6199 33.5963C25.6105 33.5464 28.0574 35.693 28.1118 38.4385H17.1281C17.2368 35.693 19.6836 33.5464 22.6199 33.5963Z" fill="#FACB13"/>
<mask id="mask5_24_1349" style="mask-type:luminance" maskUnits="userSpaceOnUse" x="13" y="38" width="31" height="20">
<path d="M13.4849 38.6882C13.4849 39.387 13.5393 40.0859 13.5937 40.7848C17.3456 40.8846 22.1849 40.6849 22.2936 41.3339C22.2936 41.4337 22.5111 41.3839 22.6743 41.3339C22.8374 41.2839 23.0005 41.2341 22.8918 41.3339C21.1517 43.0811 23.3268 46.1262 25.4474 47.6738C32.1899 52.4661 29.743 55.2117 24.2511 56.26C25.9912 56.859 27.8398 57.1585 29.6886 57.1087C35.9418 57.1087 40.3461 54.0136 43.0104 49.6705C38.9867 48.1729 32.1355 47.4241 30.5042 44.1294C29.9604 43.0312 33.2229 40.9844 33.7123 40.0859C34.6911 38.3887 28.3292 38.738 28.5467 38.6382L13.5937 38.5883C13.7024 38.5883 13.648 38.6382 13.4849 38.6882Z" fill="white"/>
</mask>
<g mask="url(#mask5_24_1349)">
<path d="M43.0648 38.3887H13.5393V57.1087H43.0648V38.3887Z" fill="url(#paint5_linear_24_1349)"/>
</g>
<mask id="mask6_24_1349" style="mask-type:luminance" maskUnits="userSpaceOnUse" x="13" y="38" width="18" height="20">
<path d="M13.4849 38.5883V38.4885C12.6693 42.582 14.5725 48.9217 18.5962 52.8655C21.9131 56.1102 26.5893 57.508 28.4924 57.2585H28.873C29.0906 57.2585 29.2537 57.3083 29.308 57.1586C33.4949 49.9701 18.3243 41.883 29.0906 38.6882C29.8518 38.4885 28.4924 38.3887 26.263 38.3887C22.5656 38.3887 16.4211 38.5883 13.4849 38.5883Z" fill="white"/>
</mask>
<g mask="url(#mask6_24_1349)">
<path d="M33.5493 38.3887H12.6693V57.508H33.5493V38.3887Z" fill="url(#paint6_linear_24_1349)"/>
</g>
<mask id="mask7_24_1349" style="mask-type:luminance" maskUnits="userSpaceOnUse" x="29" y="29" width="17" height="10">
<path d="M43.9892 30.002C40.1831 30.0518 40.5093 34.1453 37.8449 34.3949C37.1924 34.4448 35.6699 33.9956 34.5824 33.7958C33.1143 33.5962 30.2325 36.791 29.58 38.4884H45.9467C45.9467 35.593 45.403 32.6977 44.2612 29.952C44.2067 30.002 44.098 30.002 43.9892 30.002Z" fill="white"/>
</mask>
<g mask="url(#mask7_24_1349)">
<path d="M45.9468 30.002H29.58V38.5383H45.9468V30.002Z" fill="url(#paint7_linear_24_1349)"/>
</g>
<path fill-rule="evenodd" clip-rule="evenodd" d="M20.2274 49.2212C18.0524 45.1777 19.1943 42.7316 22.1849 41.1841C20.8255 43.3805 22.8374 45.2776 25.665 47.3243C23.7618 47.6238 21.9131 48.2228 20.2818 49.1713L20.2274 49.2212Z" fill="white"/>
<mask id="mask8_24_1349" style="mask-type:luminance" maskUnits="userSpaceOnUse" x="28" y="38" width="19" height="14">
<path d="M30.7218 46.875C33.3861 49.4209 38.2799 49.7704 41.8686 51.4676C44.5874 48.0731 45.9467 43.4805 46.0011 38.9377V38.7879L29.6887 38.6382C28.1661 40.7348 27.3505 43.6302 30.7218 46.875Z" fill="white"/>
</mask>
<g mask="url(#mask8_24_1349)">
<path d="M45.9467 38.5883H27.3505V51.4677H45.9467V38.5883Z" fill="url(#paint8_linear_24_1349)"/>
</g>
<mask id="mask9_24_1349" style="mask-type:luminance" maskUnits="userSpaceOnUse" x="37" y="34" width="10" height="5">
<path d="M42.3579 34.5447C40.9986 34.6944 40.0199 36.7412 37.3555 38.2887H46.0011C46.0011 37.1905 45.8924 36.0922 45.7292 35.0439C44.9136 34.9441 43.6086 34.6446 42.6842 34.5447H42.3579Z" fill="white"/>
</mask>
<g mask="url(#mask9_24_1349)">
<path d="M46.0011 34.5447H37.3555V38.2887H46.0011V34.5447Z" fill="url(#paint9_linear_24_1349)"/>
</g>
<path d="M23.6531 28.5543H21.478V29.6026H23.6531V28.5543Z" fill="#FACB13"/>
<path fill-rule="evenodd" clip-rule="evenodd" d="M30.4499 26.3079C31.8637 26.2081 33.2774 26.3578 34.5824 26.7572C35.6155 27.1066 35.9961 27.1067 36.9748 27.9054L35.5611 28.754C34.093 27.2564 32.2986 27.0068 30.4499 26.5076C29.6342 26.258 29.6342 26.3079 30.4499 26.3079Z" fill="white"/>
<path fill-rule="evenodd" clip-rule="evenodd" d="M36.3223 27.8554C37.4642 27.9552 38.8236 27.1066 39.3674 27.0068C39.5848 26.9569 39.9111 27.3063 39.748 27.4061C39.4761 27.5559 39.1499 27.7057 38.8236 27.8055C39.1499 27.6557 39.4761 27.5059 39.8568 27.4061C40.1286 27.4561 40.2918 27.8554 40.183 27.9552C40.183 27.9552 39.2586 28.1549 38.9868 28.3047C39.3674 28.1549 39.748 28.0551 40.183 27.9552C40.3462 27.9552 40.5093 28.4045 40.2918 28.5044C39.6393 28.9037 38.8236 28.9037 38.1711 29.1533C38.443 30.0519 39.0955 31.1501 39.0412 32.0987C38.9868 33.5963 38.1167 34.994 37.8449 36.3918C37.7362 36.9408 37.7905 37.0906 37.6818 36.4417C37.3555 34.6446 37.1924 31.3997 36.2681 30.2016C35.9418 29.9521 35.5611 29.8023 35.1262 29.6525C34.7455 29.5527 34.4193 29.5028 34.0386 29.5028C33.7668 29.5527 33.1687 29.7025 32.8967 29.7523C33.0056 29.3031 33.3318 28.105 34.2561 28.2049L36.3223 27.8554Z" fill="white"/>
<path fill-rule="evenodd" clip-rule="evenodd" d="M36.7574 43.73L36.703 44.2292L37.4099 44.6785V44.1293L36.7574 43.73ZM36.4855 52.2164V52.7156L36.5399 52.7656H37.2468L36.4855 52.2164ZM36.4855 51.268V51.7671L37.6818 52.6158V52.1166L36.4855 51.268ZM36.5399 50.3194V50.8187L37.7362 51.6173V51.1182L36.5399 50.3194ZM36.5399 49.3709L36.4855 49.8702L37.5731 50.619V50.0699L36.5399 49.3709ZM36.5943 48.4225V48.9216L37.6273 49.6206V49.1214L36.5943 48.4225ZM36.6486 47.474V47.9732L37.6273 48.6221V48.073L36.6486 47.474ZM36.6486 46.5255V47.0247L37.5186 47.6238V47.0747L36.6486 46.5255ZM36.703 45.5771L36.6486 46.0762L37.4642 46.6254V46.0762L36.703 45.5771ZM36.7574 44.6285L36.703 45.1278L37.4642 45.6269L37.4099 45.0778L36.7574 44.6285Z" fill="#AB9276"/>
<mask id="mask10_24_1349" style="mask-type:luminance" maskUnits="userSpaceOnUse" x="20" y="31" width="6" height="8">
<path d="M20.2274 31.6992V38.3386H25.0667L25.0124 31.6992H20.2274Z" fill="white"/>
</mask>
<g mask="url(#mask10_24_1349)">
<path d="M25.0124 31.6992H20.2274V38.3386H25.0124V31.6992Z" fill="url(#paint10_linear_24_1349)"/>
</g>
<mask id="mask11_24_1349" style="mask-type:luminance" maskUnits="userSpaceOnUse" x="21" y="26" width="4" height="6">
<path d="M22.6199 26.7572C22.3481 26.7572 22.185 27.1067 21.9674 27.3562C21.8043 27.506 21.6956 27.6558 21.5325 27.8055V30.5012L21.6412 30.651L21.5869 31.5995H23.6531L23.5987 30.6011L24.0338 30.5012L23.9793 29.5528L23.9249 28.0052C23.6531 27.7557 23.4355 27.506 23.2181 27.2564C22.9462 27.0069 23.055 26.7074 22.6199 26.7572Z" fill="white"/>
</mask>
<g mask="url(#mask11_24_1349)">
<path d="M23.9249 26.7074H21.478V31.5497H23.9249V26.7074Z" fill="url(#paint11_linear_24_1349)"/>
</g>
<path d="M23.5444 28.6042H21.5869V29.4528H23.5444V28.6042Z" fill="#FACB13"/>
<path fill-rule="evenodd" clip-rule="evenodd" d="M22.0218 6.19019C22.8374 6.24003 23.5443 6.68931 23.4899 7.28835C23.4355 7.88739 23.055 10.683 23.055 10.683L19.7925 10.8826L20.3906 7.03879C20.3906 7.08875 21.2062 6.19019 22.0218 6.19019Z" fill="#EAD7B1"/>
<path d="M21.2061 7.43808C21.0974 8.48641 20.9343 9.13541 20.8799 10.1837C21.4237 10.1338 21.8586 10.1338 22.2936 10.0839C22.4024 9.08545 22.5655 8.33665 22.6743 7.33828C22.4024 6.7892 21.6411 6.83904 21.2061 7.43808Z" fill="#6E4E32"/>
<path d="M38.5518 10.1837C38.443 9.18536 38.3343 8.43656 38.2256 7.43808C37.7905 6.83903 37.0293 6.73923 36.7574 7.33828C36.8662 8.33664 36.9749 9.08544 37.138 10.0839C37.5731 10.1338 37.9536 10.1837 38.5518 10.1837Z" fill="#6E4E32"/>
<path d="M31.8637 11.881V11.4816C31.7549 10.1837 31.6462 8.08704 29.8518 8.08704C28.0574 8.08704 28.003 10.2336 27.8943 11.5315V11.831L31.8637 11.881Z" fill="#6E4E32"/>
<path d="M29.8518 7.58782C32.1899 7.58782 32.2442 10.1337 32.4073 11.7313V11.881H32.8424V11.7811C32.788 11.3318 32.7336 10.8825 32.6793 10.4333H33.7668L33.9299 11.7811L33.9843 11.881H34.4193V11.7811L34.2561 10.4333L36.1592 10.4832L36.2136 11.0323L37.0837 11.0823C37.573 11.1322 38.0624 11.1322 38.4974 11.1821L39.8024 11.282L39.748 10.6829C40.5636 10.7328 41.3792 10.7827 42.1948 10.8825L42.5755 12.3303L42.6299 12.5799H43.0649L43.0104 12.2304L42.6842 10.9825L45.6749 11.3318L46.3274 12.6797L46.3818 12.8294L46.4361 12.9294L46.9798 12.9792V12.8794L43.7174 6.04038L44.8592 6.19014L46.0555 5.24161L46.9254 3.49445C47.0343 2.84545 47.0343 2.14661 46.9798 1.4976C46.3274 1.3978 42.5755 0.698842 42.2492 0.698842L39.4761 1.84708V0.399321L34.7999 0.0499601L33.1687 1.44764H32.1355V0H27.4593V1.44764L26.4806 1.4976L24.8493 0.0998003L20.1187 0.449281V1.84708L17.4543 0.748802C17.1281 0.698842 13.4306 1.3978 12.7781 1.4976C12.7781 1.89693 12.6693 3.19493 12.8324 3.49445C13.92 5.54113 13.1044 4.79233 15.0619 6.09022L15.9862 5.99042L12.7781 12.8794V13.0292L13.2675 12.9792L13.3218 12.8794L14.0831 11.282L17.0736 10.9325L16.6387 12.4301V12.7796H17.0194L17.1825 12.0806L17.5087 10.9325C18.2699 10.8825 18.9768 10.7827 19.7381 10.7328L19.6836 11.282L20.9343 11.1821C21.4237 11.1322 21.9131 11.1322 22.348 11.0823L23.1637 10.9825L23.2181 10.4832C23.9249 10.4333 24.6862 10.4333 25.393 10.3834L25.2843 11.4816L25.2299 11.9808H25.665V11.7811L25.8281 10.3834L26.9155 10.3335L26.97 9.93415L23.3812 10.1337L23.5986 8.73606L27.568 8.5863C27.1874 9.53471 26.97 10.5332 26.9155 11.5815L26.8068 11.9808H27.2418V11.7811C27.4593 10.1837 27.568 7.58782 29.8518 7.58782ZM36.0505 6.5395C34.0386 6.4397 32.0811 6.38974 30.0693 6.38974V4.99205C32.3531 4.99205 34.6368 5.09185 36.9205 5.24161L37.0293 5.99042L36.8661 6.04038C36.5943 6.09022 36.2681 6.28994 36.0505 6.5395ZM35.6698 7.48802C35.7243 7.78754 35.7243 8.0371 35.7787 8.28678L33.9299 8.23682L33.8212 6.78918C34.4737 6.78918 35.1262 6.83902 35.7787 6.88898L35.7243 6.98878L35.6156 7.23846L35.6698 7.48802ZM38.4974 10.6829C38.008 10.633 37.5186 10.633 37.0837 10.583L36.6486 10.5332L36.5943 10.1337C36.4855 9.23518 36.3223 8.28678 36.2136 7.38822V7.23846L36.268 7.13854C36.4312 6.83902 36.703 6.58946 37.0837 6.48966C37.7362 6.38974 38.3887 6.63942 38.6605 7.1885L38.7149 7.2883V7.38822C38.8236 8.28678 38.9867 9.23518 39.0412 10.1337L39.0955 10.7328L38.4974 10.6829ZM39.2586 7.38822L39.2043 7.1885C39.8568 7.23846 40.5093 7.2883 41.1074 7.38822L41.488 8.7859C40.7811 8.73606 40.0742 8.6861 39.3674 8.5863C39.3674 8.13702 39.313 7.78754 39.2586 7.38822ZM45.4573 10.8327H45.403C43.4998 10.583 41.5967 10.4333 39.6937 10.2835V10.1337C39.6392 9.73443 39.5848 9.3351 39.5305 8.93566C41.2705 9.08542 43.0649 9.23518 44.8048 9.48486L45.4573 10.8327ZM44.5874 9.08542H44.533L42.0317 8.7859L41.6512 7.38822L43.9349 7.63778L44.5874 9.08542ZM43.7174 7.23846H43.6629L38.9867 6.78918C38.6061 6.38974 38.1167 6.09022 37.5186 6.04038L37.3555 5.29157C39.2586 5.44133 41.1618 5.64093 43.0104 5.89062L43.7174 7.23846ZM42.1948 1.24804V2.14661C41.6512 2.09665 41.0529 1.99685 40.5093 1.89693L42.1948 1.24804ZM34.8542 0.649002V1.4976H33.8755L34.8542 0.649002ZM24.8493 0.649002L25.8281 1.4976L24.8493 1.54756V0.649002ZM17.4543 1.29788L19.1943 1.99685L17.4543 2.19645V1.29788ZM13.8656 4.34305C13.1044 2.99521 13.2675 3.49445 13.2675 1.89693C14.5181 1.69732 15.7144 1.4976 16.9649 1.29788V2.69569C18.2155 2.54593 19.4118 2.39617 20.6624 2.29637V0.848602C21.9131 0.748802 23.1093 0.649002 24.36 0.599042V2.04669C25.5561 1.99685 26.7524 1.94689 28.003 1.89693V0.449281H31.7006V1.89693C32.9511 1.89693 34.1474 1.94689 35.398 1.99685V0.549082C36.6486 0.599042 37.8449 0.698842 39.0955 0.798762V2.24641C40.2917 2.34621 41.5423 2.49597 42.793 2.64573V1.29788C43.9892 1.4976 45.2399 1.69732 46.4905 1.89693C46.4905 3.54429 46.6536 2.94525 45.838 4.39301C40.3462 3.54429 34.8542 3.14497 29.3624 3.14497C24.1968 3.19493 19.0311 3.59425 13.8656 4.34305ZM15.225 5.59109C14.7356 5.29157 14.4636 5.09185 14.0287 4.74237C24.4687 3.19493 35.1805 3.19493 45.6749 4.84229L44.6417 5.6909L39.2586 4.99205C31.2112 4.24325 23.1637 4.44285 15.225 5.59109ZM16.53 5.94046C18.4331 5.6909 20.3906 5.49117 22.2936 5.34141L22.1305 5.99042C21.4237 5.99042 20.8255 6.28994 20.3906 6.78918L15.8775 7.23846L16.53 5.94046ZM15.7144 7.63778L17.9981 7.38822L17.6174 8.83586L15.0074 9.13538L15.7144 7.63778ZM19.7925 10.1337V10.3335C17.9437 10.4832 16.0949 10.633 14.2462 10.8825L14.8987 9.48486C16.5843 9.28514 18.2699 9.08542 19.9556 8.98562C19.8468 9.38494 19.7925 9.78439 19.7925 10.1337ZM20.1187 7.38822C20.0643 7.78754 20.0099 8.18686 19.9556 8.5863L18.0524 8.73606L18.4875 7.2883C19.0311 7.23846 19.5749 7.1885 20.1187 7.13854V7.38822ZM23.2181 7.43806C23.1093 8.38658 22.9461 9.28514 22.8374 10.1837L22.783 10.583L22.2936 10.633C21.8043 10.6829 21.3149 10.6829 20.8799 10.7328L20.2274 10.7827L20.2818 10.1837C20.3906 9.28514 20.5537 8.33662 20.6081 7.43806V7.33826L20.6624 7.23846C20.9886 6.68926 21.6411 6.4397 22.2936 6.5395C22.6199 6.63942 22.9461 6.83902 23.1092 7.13854L23.1637 7.23846L23.2181 7.43806ZM23.3268 6.5395C23.1093 6.28994 22.8374 6.14018 22.5656 6.04038L22.7287 5.24161C25.0125 5.09185 27.3505 4.99205 29.6342 4.99205V6.3399C27.568 6.3399 25.4474 6.38974 23.3268 6.5395ZM25.665 8.28678C24.958 8.28678 24.3055 8.33662 23.5986 8.38658C23.653 8.08706 23.7075 7.78754 23.7075 7.53798L23.7617 7.2883L23.653 6.98878L23.5986 6.93894C24.3055 6.88898 25.0667 6.88898 25.7737 6.83902L25.665 8.28678ZM26.0999 8.28678L26.2086 6.83902C28.6012 6.78918 30.9936 6.73922 33.3861 6.83902L33.5492 8.23682L31.918 8.18686C32.0268 8.28678 32.0811 8.43654 32.1355 8.5863L35.833 8.73606L36.0505 10.1337L32.6249 9.98399V10.1337C32.3531 8.63614 31.7549 7.1885 29.7974 7.1885C28.9817 7.13854 28.1661 7.53798 27.7312 8.18686L26.0999 8.28678Z" fill="#6E4E32"/>
<path d="M23.2724 34.0455H22.1305V35.0439H23.2724V34.0455Z" fill="#405965"/>
<path d="M24.8494 49.7704C25.0125 49.6705 25.0668 49.4709 24.9581 49.3211C24.9581 49.2711 24.9037 49.2711 24.8494 49.2212H23.9249V48.7221C23.9249 48.6221 23.8162 48.5223 23.7075 48.5223H23.2181C23.1093 48.5223 23.0006 48.6221 23.0006 48.7221V49.2212H20.88C22.3481 48.4724 23.9793 47.9233 25.6106 47.6737L26.4806 47.524L25.7737 47.0247C24.5231 46.1262 22.2394 44.5288 22.0762 42.9313C22.0218 42.4321 22.185 41.9329 22.4568 41.4836L23.2181 40.2855L21.8587 40.9345C18.1068 42.8314 18.0524 46.0264 19.7925 49.2212H19.2487V48.9217H18.5418V49.2212H17.7262C17.5088 49.3709 17.5088 49.5707 17.7262 49.7704C20.0643 50.1697 22.4568 50.1697 24.8494 49.7704ZM22.0762 41.2839C20.7168 43.4805 22.6743 45.2776 25.5561 47.3243C23.6531 47.6238 21.8587 48.2228 20.2819 49.1713C18.2155 45.3774 19.0856 42.7815 22.0762 41.2839Z" fill="#405965"/>
<path d="M34.3106 28.6542C34.2017 28.6542 34.093 28.704 34.093 28.8039C34.093 28.9037 34.1474 29.0035 34.2561 29.0035C34.3648 29.0035 34.4737 28.9537 34.4737 28.8538C34.4737 28.754 34.4193 28.704 34.3106 28.6542Z" fill="#405965"/>
<path d="M54.0487 30.3015C54.4292 27.4061 56.6587 25.4093 59.2687 23.8618L59.758 23.6122L51.0036 13.4784L50.8405 13.4284C49.8074 13.2288 48.7743 13.0791 47.7411 12.9293C44.5874 12.5299 42.3037 12.2803 40.3462 12.0806L38.715 11.9808H38.6605L38.1712 11.9308H37.9536C36.7575 11.881 35.5612 11.831 34.3649 11.7811H33.5493C29.1449 11.6813 25.2843 11.831 22.5112 11.9808C21.5325 12.0308 15.3882 12.5798 14.2463 12.7296H14.0832C12.6693 12.9293 9.7875 13.3286 8.75433 13.4784L0.0544434 23.6122L0.543817 23.8618C3.15381 25.3594 5.38313 27.4061 5.7638 30.3015C6.14434 33.1968 4.34997 36.4916 3.15381 39.0874C1.57685 42.5819 0.108731 46.0264 0.108731 49.8702C0.108731 50.6689 0.217568 51.5175 0.489399 52.3163C1.35944 54.8622 3.48006 56.9089 5.7638 58.5563C8.4825 60.4034 11.3643 62.0507 14.4094 63.4484C17.5088 64.946 20.6624 66.3938 23.6531 68.0412C25.665 69.1393 28.275 70.7867 29.3624 72.6837L29.7974 73.4824L30.2325 72.6837C31.3199 70.7867 33.9843 69.1393 35.9418 68.0412C38.9324 66.3938 42.0862 64.946 45.1855 63.4484C48.2305 62.0507 51.1124 60.4034 53.8311 58.5563C56.1149 56.9089 58.2355 54.8622 59.1055 52.3163C59.3774 51.5175 59.4861 50.7188 59.4861 49.8702C59.4861 46.0264 58.0179 42.5819 56.4411 39.0874C55.3537 36.4916 53.668 33.1968 54.0487 30.3015ZM29.8518 72.484C25.665 65.1457 0.598105 60.8527 0.598105 49.8702C0.598105 38.8877 13.2675 30.8007 0.761229 23.4624L8.97187 13.8777C23.7075 11.5815 37.6274 11.5815 50.7318 13.8777L58.9424 23.4624C46.4361 30.8007 59.0511 38.8877 59.0511 49.8702C59.0511 60.8527 34.0386 65.1957 29.8518 72.484Z" fill="#405965"/>
<path fill-rule="evenodd" clip-rule="evenodd" d="M17.4543 2.19645L19.3031 1.99685L17.4543 1.24805V2.19645Z" fill="#EAD7B1"/>
<path d="M54.2118 39.9361C52.8524 36.8911 51.1667 33.3966 51.6018 30.0519C51.9281 27.3064 53.5593 25.1598 55.8431 23.4126L56.2236 23.1131L49.5899 15.5252L49.4268 15.4753C36.4312 13.3287 23.2182 13.5783 10.2225 15.4753L10.0051 15.5252L3.48009 23.1131L3.80634 23.4126C6.09008 25.1598 7.72133 27.3064 8.04758 30.0519C8.48253 33.4466 6.79687 36.8911 5.38317 39.9361C3.96946 43.131 2.50134 46.3758 2.50134 49.8703C2.50134 50.4693 2.61005 51.0683 2.77317 51.6174C4.24129 55.9605 11.3101 59.405 15.4969 61.4518C18.6507 62.9992 21.8587 64.397 24.8494 66.0943C26.4807 66.9429 27.9488 67.9913 29.3625 69.1394L29.7431 69.4389L30.0694 69.1394C31.4287 67.9913 32.9512 66.9429 34.5825 66.0943C37.6274 64.397 40.8356 62.9494 43.935 61.4518C48.448 59.2552 56.9305 55.2117 56.9305 49.8703C57.0936 46.3758 55.6255 43.131 54.2118 39.9361ZM43.8261 61.0523C40.6725 62.5999 37.4643 64.0475 34.4193 65.7449C32.7881 66.6434 31.2656 67.6418 29.8518 68.8399C28.4381 67.6418 26.9156 66.6434 25.2844 65.7449C22.2394 64.0475 19.0312 62.5999 15.8776 61.0523C11.9081 59.1054 4.78509 55.661 3.37125 51.4677C3.20813 50.9186 3.09942 50.3695 3.09942 49.8203C3.09942 46.3758 4.51313 43.181 5.92696 40.036C7.34066 36.8911 9.02632 33.3966 8.59124 29.9022C8.2107 27.0069 6.47062 24.7605 4.13259 22.9634L7.61249 18.9198L16.3125 26.8072C10.8207 35.2437 12.1257 48.8219 20.3906 54.7126C23.1093 56.6594 26.4262 57.6578 29.8518 57.6078C35.833 57.6078 40.2374 54.9122 43.0105 50.9685L50.2968 57.6078C48.2305 58.8559 46.0556 60.004 43.8261 61.0523ZM31.32 20.1677H31.4831C32.625 20.2677 33.8213 20.5172 34.9087 20.8667L35.235 20.9665H35.2894L35.6699 21.1163L35.7243 21.1662L35.9419 21.266C37.0293 21.7153 38.0081 22.2644 38.9324 22.9634L39.5306 23.4126L39.748 23.6122C40.6725 24.411 41.4881 25.3096 42.1949 26.2581L42.2493 26.3079C42.3037 26.4078 42.4124 26.5076 42.4669 26.6074L42.358 26.4577L42.4669 26.5576V26.6074C43.1194 27.556 43.663 28.5045 44.0981 29.5528H43.9893C42.5211 29.5528 41.1619 30.3016 40.4549 31.4497C40.4549 31.4997 40.2374 31.7992 40.1287 31.9988C39.8569 32.4481 39.5306 32.8974 39.2044 33.3467C39.2587 33.0971 39.3131 32.8475 39.3675 32.5979C39.3675 32.4981 39.3675 32.3983 39.4218 32.2485C39.4762 32.1486 39.4218 31.8491 39.4218 31.8491C39.4218 30.9505 38.9324 30.1518 38.6606 29.3531C39.3131 29.2533 39.9112 29.0536 40.5094 28.804C40.8356 28.5543 40.8899 28.105 40.6181 27.8055C40.6181 27.7057 40.5637 27.6059 40.5637 27.556C40.5637 27.506 40.4549 27.4062 40.4549 27.3562C40.4005 27.2564 40.2918 27.1566 40.1831 27.1067C40.02 26.8072 39.6937 26.6074 39.3131 26.6574C38.9868 26.7572 38.715 26.8571 38.443 26.9569C38.1168 27.1067 37.845 27.3064 37.5187 27.4062C37.41 27.4562 37.3012 27.4562 37.1925 27.506C36.8118 27.2564 36.3768 27.0069 35.9419 26.8072C35.833 26.7572 35.6699 26.7074 35.3981 26.6074L34.9087 26.4577C34.0387 26.1582 33.1143 26.0084 32.19 25.9586C31.8638 25.9586 31.5918 25.9086 31.1568 25.9086H30.6675C30.3412 25.9086 29.6887 25.8586 29.6343 26.2581C29.58 26.6574 30.1781 26.7572 30.5043 26.8571H30.5588L31.4831 27.0567C32.3531 27.2564 33.223 27.506 34.0387 27.9054C33.5493 28.0052 33.1688 28.3048 33.0056 28.7041L32.8968 28.9538C32.7881 29.2033 32.7337 29.4529 32.6794 29.7026L32.5705 30.2017L33.223 30.0519C33.495 30.0021 33.8213 29.9521 34.0931 29.9022C34.3649 29.9022 34.6912 29.9521 34.9631 30.0519C35.1805 30.1019 35.3981 30.2017 35.6156 30.3016H35.6699C35.833 30.3515 35.9962 30.4514 36.105 30.5512V30.6011C36.4312 31.3499 36.6487 32.0987 36.7575 32.8974V32.9473C36.7575 33.0471 36.8118 33.1471 36.8118 33.2968C36.8118 33.4466 36.8662 33.5963 36.8662 33.6961V33.8959C36.6487 33.8459 36.3768 33.7959 36.2137 33.7461L36.0506 33.6961H35.9962L34.6912 33.3966C34.0387 33.3966 33.3862 33.6462 32.8968 34.0955C32.7337 34.1954 32.5705 34.3451 32.4074 34.4449C32.0269 34.7445 31.6462 35.0939 31.32 35.4433C31.2656 35.4933 31.2113 35.5432 31.1568 35.643C30.885 35.9425 30.6675 36.2421 30.3956 36.5416L30.0694 36.9909C29.9606 37.1906 29.8518 37.3403 29.7431 37.4901C29.58 37.7397 29.4712 37.9394 29.3625 38.189H25.4475V31.4997H23.9249L23.8707 30.7009H24.3056V29.2033H23.9249V28.754H24.2512V28.2548C24.2512 27.8055 23.9249 27.4062 23.4356 27.2564V27.1067C23.4356 26.8072 23.2182 26.5576 22.8919 26.4577C22.8375 26.4577 22.7288 26.4078 22.6744 26.4078H22.5112C22.185 26.4577 21.9132 26.7572 21.9132 27.0567V27.2065C21.4781 27.3562 21.1518 27.7557 21.1518 28.205V28.7041H21.4781V29.1534H21.1518V30.651H21.6412L21.5869 31.4497H20.0644V38.139H13.6481V37.4901C13.6481 37.1406 13.7025 37.0408 13.7025 36.5915V36.2421C13.7569 35.643 13.8112 35.0939 13.9743 34.5447C13.9743 34.4449 14.0288 34.2952 14.0288 34.1954C14.1375 33.6462 14.2463 33.2469 14.3006 32.8475C14.355 32.6478 14.4094 32.4981 14.4637 32.2983V32.2485C14.5181 32.0488 14.5726 31.8491 14.6813 31.5495C14.79 31.25 14.8988 30.9505 15.0075 30.651C15.0619 30.4514 15.1706 30.2516 15.2793 30.0021V29.9521C15.4425 29.5028 15.66 29.0536 15.8776 28.6542L15.9318 28.5543C16.2581 27.9054 16.6388 27.2564 17.0737 26.6574C17.4 26.1582 17.7806 25.7089 18.1613 25.2596L18.3787 25.01L18.4331 24.9601C18.8138 24.461 19.3032 24.0117 19.7925 23.6122L19.8468 23.5624C20.4993 22.9634 21.2607 22.4641 22.0219 22.0148H22.0763C22.3481 21.8151 22.6744 21.6653 23.0006 21.5156C23.055 21.4657 23.1637 21.4158 23.2182 21.4158C24.0338 21.0165 24.9037 20.7169 25.8282 20.4673H25.8824C26.2631 20.3675 26.6438 20.2677 27.0243 20.2177C28.0031 20.0679 28.9818 19.9681 29.9606 19.9681H30.7762L30.9937 20.018C30.9937 20.1179 31.1568 20.1179 31.32 20.1677ZM13.6481 38.5883H29.0906C28.6013 38.738 28.1662 38.8878 27.6768 39.0875L27.5681 39.1375L27.1874 39.3371C27.0787 39.387 26.9156 39.4868 26.8069 39.5368C25.7737 40.036 25.1212 41.0844 25.1212 42.1327C25.1212 42.6318 25.2299 43.0811 25.3388 43.5803L25.3931 43.7301C25.4475 43.8798 25.5019 44.0796 25.6106 44.2792C25.8824 44.8782 26.1544 45.4274 26.4807 46.0265L27.1874 47.2245C28.2206 49.0217 29.3625 50.8686 29.8518 52.8155C30.1781 53.9638 30.1237 55.2117 29.6887 56.3599C29.6343 56.5097 29.58 56.6095 29.5256 56.7592C29.4712 56.909 29.4169 56.959 29.3625 57.0588C28.9818 57.0588 28.5468 57.0088 28.1662 57.0088C25.9913 56.8092 23.9249 56.1602 22.0763 55.1119C16.095 51.6674 13.485 44.6786 13.6481 38.5883ZM21.6956 32.4981V31.899H22.3481V32.4981H23.0006V31.899H23.6531V32.4981H24.3056V31.899H24.9581V33.1969H20.3906V31.899H21.0431V32.4981H21.6956ZM22.6744 27.556C23.2724 27.556 23.7618 27.9054 23.7618 28.3048V28.4046H21.5325V28.3048C21.5869 27.8555 22.0763 27.556 22.6744 27.556ZM22.2937 27.1566C22.2937 27.0069 22.4568 26.8571 22.6199 26.8571C22.7831 26.8571 22.9462 27.0069 22.9462 27.1566V27.2065H22.6199C22.5112 27.2065 22.4025 27.2065 22.2937 27.2564V27.1566ZM23.4356 28.754V29.2033H22.8919V28.754H23.4356ZM22.4568 29.2533H21.9132V28.804H22.4568V29.2533ZM23.8707 30.3514H21.5325V29.6026H23.9249L23.8707 30.3514ZM23.4356 31.4997H21.9132L21.9674 30.7009H23.3813L23.4356 31.4997ZM24.9581 35.3935H20.3906V33.5963H25.0125L24.9581 35.3935ZM24.9581 35.7928V38.139H23.2724V36.8411C23.3269 36.5416 23.1093 36.2421 22.7831 36.1921C22.4568 36.1423 22.1306 36.3419 22.0763 36.6414V38.139H20.3906V35.7928H24.9581ZM29.7974 57.0588C31.2113 54.3631 30.1237 51.6174 28.71 49.0217C27.8944 47.5241 26.97 46.0763 26.3175 44.7284C25.8824 43.8299 25.4475 42.6818 25.6106 41.6834C25.7193 40.9346 26.2087 40.2856 26.8612 39.8863C27.405 39.5868 28.0031 39.2872 28.6013 39.0875L28.6556 39.0376L28.9275 38.9378C27.2963 41.7832 27.8944 44.5288 30.4499 47.0248C31.918 48.4226 33.9844 49.1714 36.1593 49.8203L36.0506 52.9653H38.0081V52.6658C38.0081 51.9169 37.9537 51.1183 37.9537 50.3695C39.2044 50.7189 40.4549 51.1681 41.5968 51.6674C38.8781 55.1618 34.4738 57.1586 29.7974 57.0588ZM37.8994 44.5787L38.5519 45.1777L38.7693 44.9781L38.0625 44.2792C38.6062 44.5288 39.0412 44.8782 39.4218 45.3275V45.5272L39.2587 46.8751L38.4974 46.1762L38.3887 46.1263L38.3343 46.0265C38.2799 45.5272 38.1168 45.028 37.8994 44.5787ZM38.1712 46.276L37.845 46.925C37.845 46.326 37.7905 45.7269 37.7905 45.1279C37.9537 45.4772 38.0081 45.8267 38.1168 46.2261L38.1712 46.276ZM38.5519 44.1794L39.2044 44.3791L39.3131 44.0796L38.4974 43.8299C38.8781 43.8299 39.2587 43.9298 39.6393 44.0296L39.748 44.1294L40.5637 45.4274L39.8569 45.2776C39.4762 44.8284 39.0412 44.4789 38.5519 44.1794ZM39.8569 43.7301H39.748C39.3131 43.5803 38.8781 43.5304 38.443 43.5304L39.3675 43.3806L39.3131 43.0811L38.2256 43.2308L39.3131 42.7317H39.4218L40.9987 42.9813L39.8569 43.7301ZM39.6393 40.9346L39.2587 41.0844L39.6937 40.7848L39.6393 40.9346ZM39.5306 41.3339L39.2044 42.482V42.532H39.1499C38.6606 42.7317 38.1712 42.9313 37.6818 43.2308L38.7693 42.1327L38.4974 41.933L37.5731 42.9313C37.7362 42.582 37.8994 42.2325 38.1168 41.883L38.1712 41.8332H38.2256L39.5306 41.3339ZM36.4855 51.8171V51.3679L37.6818 52.1666V52.6658L36.4855 51.8171ZM37.2469 52.8155H36.4855L36.4312 52.7657V52.2664L37.2469 52.8155ZM37.4643 45.2277V45.7269L36.7031 45.2277V44.7284L37.4643 45.2277ZM36.7575 44.2293V43.78L37.41 44.1794V44.6786L36.7575 44.2293ZM37.5187 46.1762V46.6753L36.7031 46.0763V45.5772L37.5187 46.1762ZM37.5187 47.1746V47.6738L36.6487 47.0748V46.6255L37.5187 47.1746ZM37.5731 48.1729V48.6722L36.6487 48.0232V47.5739L37.5731 48.1729ZM37.5731 49.1714V49.6705L36.54 48.9717V48.5224L37.5731 49.1714ZM37.6274 50.1698V50.669L36.54 49.9202V49.4709L37.6274 50.1698ZM37.6818 51.1681V51.6674L36.54 50.8686V50.4193L37.6818 51.1681ZM37.7905 41.7832C37.5731 42.0827 37.41 42.3822 37.3012 42.7317V41.5336H36.9749V42.8815C36.8118 42.4322 36.5944 42.0328 36.3224 41.6834V41.5835L37.0837 40.2356L37.845 41.5835V41.6334L37.7905 41.7832ZM36.54 42.9313L35.6156 42.0827L35.3981 42.2824L36.6487 43.4306C36.1593 43.0811 35.6156 42.7816 35.0174 42.582L34.9631 42.532L34.6369 41.3339L35.8875 41.8332L35.9962 41.883L36.0506 41.933C36.2137 42.2325 36.3768 42.582 36.54 42.9313ZM34.4738 40.9346L34.4193 40.7848L34.8543 41.0844L34.4738 40.9346ZM34.6369 42.8815H34.8543L35.833 43.2808L34.9087 43.0811L34.8 43.3806L35.7243 43.5304C35.2894 43.5304 34.8543 43.6303 34.4193 43.7301H34.3106L33.1688 43.0312L34.6369 42.8815ZM34.4193 44.1794L34.528 44.0796C34.9087 43.9796 35.2894 43.9298 35.6699 43.8798L34.8 44.1294L34.9087 44.4289L35.6156 44.2293C35.1263 44.5288 34.7456 44.8782 34.3649 45.2776L34.3106 45.3275V45.3774L33.6037 45.5272L34.4193 44.1794ZM34.7456 45.4274C35.0718 45.028 35.5068 44.6786 35.9419 44.4289L35.3437 44.9781L35.5612 45.1777L36.3224 44.4789C35.9962 44.9781 35.7788 45.5272 35.6699 46.0763V46.1263L35.6156 46.1762L34.9087 46.925L34.7456 45.5772V45.4274ZM36.0506 46.0763C36.105 45.7768 36.2137 45.4773 36.3768 45.1777L36.3224 46.8251L36.0506 46.2261V46.0763ZM37.9537 50.02C37.8994 49.2213 37.8994 48.4226 37.845 47.6239L38.1712 46.9749V47.8734H38.4974V47.0248L38.8237 47.8236L39.1499 47.7237L38.8237 46.8751L39.4762 47.5241L39.748 47.3243L39.6393 47.2245L39.748 46.326L40.02 47.2245L40.3462 47.1246L40.0743 46.276L40.6181 46.9749L40.8899 46.8251L40.2374 45.9765L41.1074 46.4757L41.2706 46.2261L40.4549 45.7768L40.7268 45.8267L40.8356 45.9765L41.053 45.8767L41.4337 45.9265L41.4881 45.627H41.3793L41.5968 45.4274L40.7812 44.5787L41.8144 45.1279L41.9775 44.8782L40.8899 44.2792L42.1406 44.5288L42.1949 44.2293L41.1619 44.0296L42.1949 43.9796V43.6801L41.053 43.7301L42.1949 43.3806L42.0862 43.0811L40.9987 43.4306L41.5424 43.0811L41.9775 42.8315L41.7599 42.6318L41.4337 42.8315L40.6181 42.7317L41.7055 42.6318L41.6512 42.3323L40.4005 42.4322L41.4881 41.9829L41.3793 41.6834L40.2918 42.1327L41.2161 41.3839L40.9987 41.1342L40.0743 41.8332L40.7268 40.8846L40.4549 40.7349L40.4005 40.6351L40.0743 40.7349L40.1287 40.5851H39.9656L40.1831 40.4354L39.9656 40.1858L38.8781 40.8846L39.6393 39.9361L39.3675 39.7365L38.4974 40.7349L38.9868 39.5368L38.6606 39.437L38.2799 40.4354L38.3887 39.387H38.0625L37.9537 40.5352L37.6818 39.437L37.3556 39.4868L37.6274 40.6351L37.1925 39.9361L37.3556 39.6866L37.0293 39.5368L36.9749 39.5868L36.6487 39.7365L36.7575 39.9361L36.4312 40.5851L36.7031 39.437L36.3768 39.387L36.105 40.5352L35.9962 39.387L35.6699 39.437L35.7787 40.4853L35.3437 39.437L35.0174 39.5368L35.5068 40.7349L34.6369 39.7365L34.3649 39.9361L35.1263 40.8846L34.0387 40.1858L33.8213 40.4354L34.0931 40.6351L33.93 40.6849L33.9844 40.7848L33.7124 40.5851L33.6581 40.7349L33.3862 40.8846L34.0387 41.8332L33.1688 41.1342L32.9512 41.3839L33.8755 42.1327L32.7337 41.6834L32.5705 41.933L33.6581 42.3822L32.4618 42.2325L32.4074 42.532L33.495 42.6318L32.7337 42.7317L32.4074 42.582L32.2443 42.8315L32.5705 43.0312V43.131H32.6794L33.2775 43.4805L32.19 43.131L32.0812 43.4306L33.223 43.78L32.0269 43.7301V44.0296L33.0599 44.0796L32.0269 44.2792L32.0812 44.5787L33.3319 44.3291L32.2443 44.9282L32.4074 45.1777L33.3862 44.5787L32.5705 45.3774L32.7881 45.5772H32.6794L32.7337 45.8767L33.1143 45.8267L33.3319 45.9265L33.4406 45.7768L33.7124 45.7269L32.8968 46.1762L33.0599 46.4258L33.93 45.9265L33.3319 46.7253L33.6037 46.8751L34.1475 46.1762L33.93 47.0748L34.2562 47.1746L34.528 46.276L34.6369 47.1746L34.528 47.2744L34.8 47.4741L35.4525 46.8251L35.0718 47.6738L35.3981 47.7736L35.7243 46.9749V47.8236H36.0506V46.925L36.3224 47.4741L36.2681 49.4709C34.2018 48.8219 32.2443 48.1231 30.8306 46.7753C27.6768 43.7301 28.2206 40.9844 29.5256 38.8878L29.6887 38.5883H30.4499L45.8925 38.9378C45.8925 43.5304 44.4786 48.1729 41.7599 51.5676C40.5094 51.0184 39.2044 50.5193 37.845 50.1698M40.6181 44.9282L41.2706 45.5772L40.9443 45.5272L40.6181 44.9282ZM39.748 41.6834L39.9112 41.1342L40.1831 41.0344L39.748 41.6834ZM34.3649 41.6834L33.93 41.0344L34.2562 41.1342L34.3649 41.6834ZM33.5493 44.9282L33.1688 45.5272L32.8425 45.5772L33.5493 44.9282ZM46.0012 38.2888H37.3556C40.2374 36.6414 41.1074 34.395 42.6843 34.5447C43.5543 34.6447 44.8593 34.9442 45.6749 35.044C45.8925 36.0923 45.9468 37.1906 46.0012 38.2888ZM45.4574 34.5947C45.0224 34.5447 44.6418 34.4449 44.2068 34.395C43.7719 34.3451 43.2281 34.2452 42.7387 34.1954C42.5756 34.1454 42.358 34.1454 42.1949 34.1954C41.325 34.3451 40.5636 35.1438 39.9656 35.693C39.1499 36.5416 38.1712 37.3403 37.138 37.9394L36.4855 38.2888L29.7974 38.2389C30.6675 36.4916 33.2775 33.6462 34.6369 33.8459C35.2894 33.9457 36.2137 34.1954 36.9206 34.3451C36.9749 35.044 37.0837 35.7928 37.1925 36.4916C37.2469 36.7413 37.2469 37.2404 37.6818 37.2404C38.1712 37.2404 38.1168 36.7413 38.1712 36.4418C38.3887 35.643 38.6606 34.8942 38.9324 34.1454C40.6181 33.1471 40.6725 30.0519 43.9893 30.0021H44.3155C44.9137 31.4997 45.3487 33.0471 45.6205 34.5947H45.4574ZM34.3106 28.3547L36.2681 28.0052C37.41 28.105 38.7693 27.2065 39.3675 27.1067C39.5306 27.1067 39.6937 27.2065 39.748 27.3064L38.6062 27.8055L38.7693 28.105L40.02 27.556C40.1831 27.6558 40.2374 27.8055 40.2374 27.9553L38.8781 28.2548L38.9324 28.5543L40.3462 28.2548C40.4005 28.3547 40.3462 28.5045 40.2918 28.5543C39.6393 28.9038 38.8237 28.9538 38.1712 29.2033C38.443 30.1019 39.0955 31.2002 39.0412 32.0987V32.3983L38.3343 31.0005L38.0081 31.1502L38.9868 32.9473C38.9324 33.2968 38.8237 33.5963 38.715 33.9457L37.9537 31.5995L37.6274 31.6993L38.5519 34.4449C38.2799 35.0939 38.0625 35.7428 37.8994 36.3918C37.7905 36.9409 37.8994 37.0408 37.7905 36.4418C37.41 34.6447 37.41 31.4497 36.4855 30.2516C36.105 30.0519 35.6699 29.8523 35.235 29.7026C34.9087 29.6026 34.528 29.5528 34.1475 29.5028C33.8755 29.5528 33.4406 29.6526 33.1688 29.7026C33.1688 29.2533 33.4406 28.2548 34.3106 28.3547ZM30.613 26.5076C29.8518 26.3079 29.8518 26.3079 30.6675 26.3079C32.0812 26.2581 33.4406 26.4078 34.7456 26.8571C35.3437 27.0567 35.8875 27.3064 36.4312 27.6059H36.3224L34.6912 27.9054C33.4406 27.1067 32.0269 26.8571 30.613 26.5076ZM50.8405 57.2585L43.3368 50.4693C48.883 41.9829 47.4693 28.2548 39.0955 22.3643C36.4312 20.4673 33.1688 19.4689 29.7974 19.5189C23.8162 19.5189 19.4119 22.2644 16.6388 26.2581L8.10186 18.5204L10.3313 15.9744C23.2724 14.0775 36.4312 13.828 49.3181 15.9744L55.5168 23.0631C53.1787 24.8603 51.4387 27.1067 51.058 30.0021C50.6231 33.4964 52.3086 36.9909 53.7224 40.1358C55.1362 43.2808 56.5499 46.4757 56.5499 49.9202C56.5499 52.7157 53.9399 55.2616 50.8405 57.2585Z" fill="#405965"/>
<path d="M269.383 8.38013H268.458V65H269.383V8.38013Z" fill="#0C8843"/>
<defs>
<linearGradient id="paint0_linear_24_1349" x1="11.5819" y1="2.40623" x2="47.913" y2="2.40623" gradientUnits="userSpaceOnUse">
<stop stop-color="#D8B56D"/>
<stop offset="0.51" stop-color="#EDD9B1"/>
<stop offset="0.53" stop-color="#ECD8AF"/>
<stop offset="1" stop-color="#D8B56B"/>
</linearGradient>
<linearGradient id="paint1_linear_24_1349" x1="13.5932" y1="4.62507" x2="46.3629" y2="4.62507" gradientUnits="userSpaceOnUse">
<stop stop-color="#B79644"/>
<stop offset="0.51" stop-color="#C7A865"/>
<stop offset="1" stop-color="#B89642"/>
</linearGradient>
<linearGradient id="paint2_linear_24_1349" x1="12.7357" y1="9.08337" x2="47.23" y2="9.08337" gradientUnits="userSpaceOnUse">
<stop stop-color="#DBB872"/>
<stop offset="0.51" stop-color="#E0C28B"/>
<stop offset="1" stop-color="#DBB872"/>
</linearGradient>
<radialGradient id="paint3_radial_24_1349" cx="0" cy="0" r="1" gradientUnits="userSpaceOnUse" gradientTransform="translate(30.0003 42.3585) scale(30.5597 27.6652)">
<stop stop-color="#01A668"/>
<stop offset="0.39" stop-color="#029D5F"/>
<stop offset="1" stop-color="#038647"/>
</radialGradient>
<radialGradient id="paint4_radial_24_1349" cx="0" cy="0" r="1" gradientUnits="userSpaceOnUse" gradientTransform="translate(23.9201 36.9133) scale(22.0604 19.9635)">
<stop stop-color="#E0F0E0"/>
<stop offset="0.14" stop-color="#D7EDE1"/>
<stop offset="0.37" stop-color="#BEE5E3"/>
<stop offset="0.65" stop-color="#96D7E7"/>
<stop offset="0.99" stop-color="#5EC5ED"/>
<stop offset="1" stop-color="#5CC4ED"/>
</radialGradient>
<linearGradient id="paint5_linear_24_1349" x1="11.775" y1="47.7809" x2="43.4543" y2="47.7809" gradientUnits="userSpaceOnUse">
<stop stop-color="white"/>
<stop offset="0.18" stop-color="#FFFBF6"/>
<stop offset="0.48" stop-color="#FEEFDD"/>
<stop offset="0.86" stop-color="#FCDBB5"/>
<stop offset="1" stop-color="#FBD3A4"/>
</linearGradient>
<linearGradient id="paint6_linear_24_1349" x1="12.7367" y1="47.9434" x2="34.1295" y2="47.9434" gradientUnits="userSpaceOnUse">
<stop stop-color="#00AEB4"/>
<stop offset="0.18" stop-color="#09B0B6"/>
<stop offset="0.47" stop-color="#22B5BA"/>
<stop offset="0.84" stop-color="#4ABEC2"/>
<stop offset="1" stop-color="#5EC2C6"/>
</linearGradient>
<linearGradient id="paint7_linear_24_1349" x1="37.7795" y1="29.4596" x2="37.7795" y2="38.551" gradientUnits="userSpaceOnUse">
<stop stop-color="#19A576"/>
<stop offset="0.33" stop-color="#149D6D"/>
<stop offset="0.87" stop-color="#068654"/>
<stop offset="1" stop-color="#027F4D"/>
</linearGradient>
<linearGradient id="paint8_linear_24_1349" x1="26.4996" y1="45.0232" x2="45.8828" y2="45.0232" gradientUnits="userSpaceOnUse">
<stop stop-color="#E9B68B"/>
<stop offset="0.3" stop-color="#E4AF82"/>
<stop offset="0.8" stop-color="#D69C69"/>
<stop offset="1" stop-color="#CF935D"/>
</linearGradient>
<linearGradient id="paint9_linear_24_1349" x1="41.6456" y1="34.6441" x2="41.6456" y2="38.7261" gradientUnits="userSpaceOnUse">
<stop stop-color="#19A576"/>
<stop offset="0.33" stop-color="#149D6D"/>
<stop offset="0.87" stop-color="#068654"/>
<stop offset="1" stop-color="#027F4D"/>
</linearGradient>
<linearGradient id="paint10_linear_24_1349" x1="20.7933" y1="34.999" x2="25.6" y2="34.999" gradientUnits="userSpaceOnUse">
<stop stop-color="#DBDAD9"/>
<stop offset="0.35" stop-color="#E2E2E2"/>
<stop offset="0.92" stop-color="#F7F9FB"/>
<stop offset="1" stop-color="#FAFDFF"/>
</linearGradient>
<linearGradient id="paint11_linear_24_1349" x1="21.5816" y1="29.1584" x2="24.0258" y2="29.1584" gradientUnits="userSpaceOnUse">
<stop stop-color="#DBDAD9"/>
<stop offset="0.35" stop-color="#E2E2E2"/>
<stop offset="0.92" stop-color="#F7F9FB"/>
<stop offset="1" stop-color="#FAFDFF"/>
</linearGradient>
</defs>
</svg>
