<svg width="134" height="134" viewBox="0 0 134 134" fill="none" xmlns="http://www.w3.org/2000/svg">
<g clip-path="url(#clip0_93_244)">
<path d="M106.083 122.833H27.9167C23.4744 122.833 19.2139 121.069 16.0727 117.927C12.9315 114.786 11.1667 110.526 11.1667 106.083V16.75C11.1667 15.2692 11.755 13.8491 12.8021 12.802C13.8491 11.7549 15.2693 11.1667 16.7501 11.1667H94.9167C96.3975 11.1667 97.8177 11.7549 98.8648 12.802C99.9118 13.8491 100.5 15.2692 100.5 16.75V83.75H122.833V106.083C122.833 110.526 121.069 114.786 117.927 117.927C114.786 121.069 110.526 122.833 106.083 122.833ZM100.5 94.9167V106.083C100.5 107.564 101.088 108.984 102.135 110.031C103.182 111.078 104.603 111.667 106.083 111.667C107.564 111.667 108.984 111.078 110.031 110.031C111.079 108.984 111.667 107.564 111.667 106.083V94.9167H100.5ZM89.3334 111.667V22.3334H22.3334V106.083C22.3334 107.564 22.9217 108.984 23.9687 110.031C25.0158 111.078 26.436 111.667 27.9167 111.667H89.3334ZM33.5001 39.0834H78.1667V50.25H33.5001V39.0834ZM33.5001 61.4167H78.1667V72.5834H33.5001V61.4167ZM33.5001 83.75H61.4167V94.9167H33.5001V83.75Z" fill="white"/>
</g>
<defs>
<clipPath id="clip0_93_244">
<rect width="134" height="134" fill="white"/>
</clipPath>
</defs>
</svg>
