<svg width="139" height="139" viewBox="0 0 139 139" fill="none" xmlns="http://www.w3.org/2000/svg">
<path d="M69.5001 69.5C77.1803 69.5 84.546 66.449 89.9767 61.0183C95.4075 55.5875 98.4584 48.2219 98.4584 40.5416C98.4584 32.8614 95.4075 25.4958 89.9767 20.065C84.546 14.6343 77.1803 11.5833 69.5001 11.5833C61.8199 11.5833 54.4542 14.6343 49.0234 20.065C43.5927 25.4958 40.5417 32.8614 40.5417 40.5416C40.5417 48.2219 43.5927 55.5875 49.0234 61.0183C54.4542 66.449 61.8199 69.5 69.5001 69.5Z" stroke="white" stroke-width="10" stroke-linecap="round" stroke-linejoin="round"/>
<path d="M111.258 91.1609L90.7553 111.663C89.9445 112.474 89.1916 113.98 89.0178 115.08L87.9174 122.899C87.512 125.737 89.4811 127.706 92.3191 127.301L100.138 126.2C101.238 126.027 102.802 125.274 103.555 124.463L124.057 103.96C127.59 100.428 129.27 96.3154 124.057 91.1029C118.903 85.9484 114.791 87.6279 111.258 91.1609Z" stroke="white" stroke-width="10" stroke-miterlimit="10" stroke-linecap="round" stroke-linejoin="round"/>
<path d="M108.304 94.1146C110.042 100.37 114.907 105.235 121.162 106.972" stroke="white" stroke-width="10" stroke-miterlimit="10" stroke-linecap="round" stroke-linejoin="round"/>
<path d="M19.7495 127.417C19.7495 105.003 42.0474 86.875 69.4999 86.875C75.5233 86.875 81.3149 87.7438 86.7012 89.3654" stroke="white" stroke-width="10" stroke-linecap="square" stroke-linejoin="round"/>
</svg>
