<svg width="650" height="39" viewBox="0 0 650 39" fill="none" xmlns="http://www.w3.org/2000/svg">
<path d="M436.42 25.9273C421.263 25.3702 406.419 25.1364 392.665 25.3901C377.463 25.6686 360.779 26.3302 343.722 27.2157C362.301 30.7972 378.692 34.5529 388.089 36.7963C398.122 34.3042 415.92 30.061 436.42 25.9273Z" fill="#77DB73"/>
<path d="M515.736 14.6703C491.591 15.8393 461.913 20.7938 436.42 25.9323C509.896 28.6384 590.79 39 590.79 39H649.303C649.303 39 569.947 12.0389 515.736 14.6703Z" fill="#77DB73"/>
<path d="M388.089 36.7963C393.371 38.0598 396.446 38.8408 396.446 38.8408L379.98 38.8507C379.612 38.9452 379.418 39 379.418 39H590.79C590.79 39 509.901 28.6383 436.42 25.9323C415.92 30.061 398.122 34.3041 388.089 36.7963Z" fill="#38BC34"/>
<path d="M188.72 10.7356C166.271 5.5075 143.677 1.90604 120.865 0.617679C106.827 -0.173247 92.7844 0.045623 78.7517 1.29917C62.0726 2.78651 45.5278 5.45776 29.0427 8.905C2.8277 14.3868 -50.5474 36.3437 -49.9953 38.9453C19.7257 38.9453 89.4466 38.9453 159.163 38.9453C161.127 38.1245 189.74 26.3402 228.908 20.759C215.547 17.2321 202.156 13.8645 188.72 10.7356Z" fill="#FFDB33"/>
<path d="M343.722 27.2157C318.636 22.3806 289.571 17.8788 268.365 17.8788C254.507 17.8788 241.19 19.0179 228.908 20.7689C242.548 24.3753 256.153 28.1658 269.733 32.0956C292.889 30.2998 318.711 28.514 343.722 27.2157Z" fill="#FFDB33"/>
<path d="M276.468 34.0455C281.438 35.498 287.293 37.4231 292.267 38.9105L379.98 38.8508C381.115 38.5523 383.935 37.8261 388.084 36.7964C378.687 34.5529 362.296 30.7923 343.717 27.2157C318.706 28.514 292.884 30.3048 269.728 32.0956C271.982 32.7422 274.225 33.3889 276.468 34.0455Z" fill="#77BC17"/>
<path d="M396.451 38.8408C396.451 38.8408 393.376 38.0598 388.094 36.7963C383.945 37.826 381.125 38.5573 379.99 38.8507L396.451 38.8408Z" fill="#38A20A"/>
<path d="M269.733 32.0956C256.153 28.1658 242.543 24.3753 228.908 20.7689C189.74 26.3502 161.127 38.1295 159.163 38.9553C169.763 38.9553 180.358 38.9553 190.959 38.9553C195.297 38.5225 228.227 35.3041 269.733 32.0956Z" fill="#FFBC0A"/>
<path d="M269.733 32.0956C228.227 35.3041 195.296 38.5225 190.954 38.9503C204.599 38.9503 218.238 38.9503 231.883 38.9503L292.267 38.9105C287.288 37.4231 281.438 35.503 276.468 34.0455C274.225 33.3889 271.982 32.7423 269.733 32.0956Z" fill="#E4B605"/>
</svg>
