<svg width="139" height="139" viewBox="0 0 139 139" fill="none" xmlns="http://www.w3.org/2000/svg">
<g clip-path="url(#clip0_93_235)">
<path d="M81.0833 82.5429V94.6474C75.8414 92.7941 70.2313 92.2257 64.7242 92.9898C59.217 93.7539 53.9737 95.8283 49.4343 99.0387C44.895 102.249 41.1923 106.502 38.6371 111.44C36.0819 116.378 34.7489 121.857 34.75 127.417L23.1666 127.411C23.1648 120.339 24.782 113.36 27.8944 107.009C31.0067 100.658 35.5315 95.1046 41.122 90.773C46.7126 86.4414 53.2206 83.4471 60.1473 82.0195C67.074 80.592 74.2356 80.7748 81.0833 82.5429ZM69.5 75.2917C50.3006 75.2917 34.75 59.7411 34.75 40.5417C34.75 21.3423 50.3006 5.79169 69.5 5.79169C88.6993 5.79169 104.25 21.3423 104.25 40.5417C104.25 59.7411 88.6993 75.2917 69.5 75.2917ZM69.5 63.7084C82.2995 63.7084 92.6666 53.3413 92.6666 40.5417C92.6666 27.7421 82.2995 17.375 69.5 17.375C56.7004 17.375 46.3333 27.7421 46.3333 40.5417C46.3333 53.3413 56.7004 63.7084 69.5 63.7084ZM104.25 98.4584V81.0834H115.833V98.4584H133.208V110.042H115.833V127.417H104.25V110.042H86.875V98.4584H104.25Z" fill="white"/>
</g>
<defs>
<clipPath id="clip0_93_235">
<rect width="139" height="139" fill="white"/>
</clipPath>
</defs>
</svg>
